<?xml version="1.0" standalone="no"?>
<!DOCTYPE svg PUBLIC "-//W3C//DTD SVG 20010904//EN"
 "http://www.w3.org/TR/2001/REC-SVG-20010904/DTD/svg10.dtd">
<svg version="1.0" xmlns="http://www.w3.org/2000/svg"
 width="260.000000pt" height="260.000000pt" viewBox="0 0 260.000000 260.000000"
 preserveAspectRatio="xMidYMid meet">
<metadata>
Created by potrace 1.16, written by Peter Selinger 2001-2019
</metadata>
<g transform="translate(0.000000,260.000000) scale(0.100000,-0.100000)"
fill="#000000" stroke="none">
<path d="M445 2581 c-204 -73 -356 -231 -420 -434 l-25 -77 0 -763 c0 -840 -2
-803 62 -932 68 -135 184 -246 326 -312 138 -64 135 -64 946 -61 679 3 735 5
786 22 141 47 256 124 335 224 56 70 119 198 135 272 8 40 10 272 8 825 l-3
770 -26 63 c-82 194 -218 327 -403 397 l-66 25 -803 0 c-748 -1 -805 -2 -852
-19z m1645 -75 c224 -75 370 -235 416 -457 13 -61 14 -183 12 -778 l-3 -706
-25 -70 c-51 -147 -170 -280 -308 -346 -123 -59 -133 -60 -915 -57 -707 3
-712 3 -778 25 -196 67 -352 245 -395 452 -23 112 -16 1463 8 1532 68 195 219
346 398 399 36 10 79 21 95 23 17 2 347 4 735 3 655 -1 709 -3 760 -20z"/>
<path d="M960 2061 l-34 -29 66 -73 c36 -41 181 -202 322 -359 141 -156 256
-288 256 -291 0 -4 -29 -39 -65 -79 -36 -40 -62 -77 -58 -83 3 -5 2 -7 -4 -4
-6 4 -124 -120 -264 -275 l-253 -281 34 -28 c18 -16 37 -26 42 -23 4 3 150
163 324 356 240 267 313 353 302 360 -10 8 -9 9 3 5 10 -3 28 6 44 23 l27 28
-352 391 c-194 215 -353 391 -354 391 0 0 -17 -13 -36 -29z"/>
</g>
</svg>
